<svg width="547" height="156" viewBox="0 0 547 156" fill="none" xmlns="http://www.w3.org/2000/svg">
<path d="M327.36 33.1985C327.36 35.4028 326.854 37.4264 325.843 39.2694C324.831 41.0762 323.277 42.5398 321.181 43.66C319.085 44.7802 316.483 45.3404 313.375 45.3404H307.63V59H298.361V20.9481H313.375C316.411 20.9481 318.977 21.4721 321.073 22.5201C323.168 23.568 324.74 25.0135 325.788 26.8565C326.836 28.6994 327.36 30.8134 327.36 33.1985ZM312.671 37.9685C314.442 37.9685 315.76 37.5529 316.628 36.7218C317.495 35.8906 317.929 34.7162 317.929 33.1985C317.929 31.6807 317.495 30.5063 316.628 29.6751C315.76 28.844 314.442 28.4284 312.671 28.4284H307.63V37.9685H312.671ZM341.455 28.3742V36.0713H353.868V43.2264H341.455V51.5739H355.494V59H332.186V20.9481H355.494V28.3742H341.455ZM370.781 51.8449H382.923V59H361.512V20.9481H370.781V51.8449ZM396.613 20.9481V59H387.344V20.9481H396.613ZM430.703 20.9481V28.3742H420.621V59H411.352V28.3742H401.27V20.9481H430.703ZM459.043 52.2786H444.841L442.564 59H432.862L446.63 20.9481H457.362L471.13 59H461.319L459.043 52.2786ZM456.658 45.1235L451.942 31.1929L447.28 45.1235H456.658ZM341.454 66.9481V105H332.185V82.1797L323.674 105H316.194L307.63 82.1255V105H298.361V66.9481H309.31L319.988 93.2917L330.558 66.9481H341.454ZM357.226 66.9481V89.7142C357.226 91.9908 357.786 93.7434 358.906 94.9721C360.026 96.2007 361.67 96.8151 363.839 96.8151C366.007 96.8151 367.669 96.2007 368.825 94.9721C369.982 93.7434 370.56 91.9908 370.56 89.7142V66.9481H379.829V89.66C379.829 93.0568 379.106 95.9297 377.661 98.2786C376.215 100.627 374.264 102.398 371.807 103.591C369.386 104.783 366.675 105.379 363.676 105.379C360.677 105.379 357.984 104.801 355.599 103.645C353.251 102.452 351.39 100.682 350.016 98.3328C348.643 95.9478 347.957 93.0568 347.957 89.66V66.9481H357.226ZM413.711 66.9481V74.3742H403.629V105H394.36V74.3742H384.278V66.9481H413.711ZM427.632 66.9481V105H418.363V66.9481H427.632ZM458.037 98.2786H443.835L441.559 105H431.856L445.624 66.9481H456.357L470.125 105H460.314L458.037 98.2786ZM455.652 91.1235L450.936 77.1929L446.275 91.1235H455.652ZM493.72 105L485.806 90.6357H483.584V105H474.315V66.9481H489.872C492.871 66.9481 495.419 67.4721 497.515 68.5201C499.647 69.568 501.237 71.0135 502.285 72.8565C503.333 74.6633 503.857 76.687 503.857 78.9274C503.857 81.457 503.134 83.7155 501.688 85.703C500.279 87.6906 498.183 89.0999 495.401 89.931L504.182 105H493.72ZM483.584 84.0769H489.33C491.028 84.0769 492.293 83.6613 493.124 82.8302C493.991 81.999 494.425 80.8246 494.425 79.3069C494.425 77.8614 493.991 76.7231 493.124 75.892C492.293 75.0608 491.028 74.6452 489.33 74.6452H483.584V84.0769ZM533.363 98.2786H519.161L516.884 105H507.182L520.95 66.9481H531.682L545.45 105H535.639L533.363 98.2786ZM530.978 91.1235L526.262 77.1929L521.6 91.1235H530.978ZM341.454 112.948V151H332.185V128.18L323.674 151H316.194L307.63 128.126V151H298.361V112.948H309.31L319.988 139.292L330.558 112.948H341.454ZM371.807 144.279H357.605L355.328 151H345.626L359.394 112.948H370.126L383.894 151H374.083L371.807 144.279ZM369.422 137.124L364.706 123.193L360.044 137.124H369.422ZM410.146 151L397.354 134.196V151H388.085V112.948H397.354V129.643L410.038 112.948H420.933L406.189 131.595L421.475 151H410.146ZM468.973 112.948V151H459.704V128.18L451.194 151H443.713L435.149 128.126V151H425.88V112.948H436.829L447.508 139.292L458.078 112.948H468.973ZM484.745 112.948V135.714C484.745 137.991 485.305 139.743 486.425 140.972C487.545 142.201 489.19 142.815 491.358 142.815C493.526 142.815 495.188 142.201 496.345 140.972C497.501 139.743 498.079 137.991 498.079 135.714V112.948H507.348V135.66C507.348 139.057 506.626 141.93 505.18 144.279C503.735 146.627 501.783 148.398 499.326 149.591C496.905 150.783 494.195 151.379 491.195 151.379C488.196 151.379 485.504 150.801 483.119 149.645C480.77 148.452 478.909 146.682 477.536 144.333C476.162 141.948 475.476 139.057 475.476 135.66V112.948H484.745ZM533.262 151L525.349 136.636H523.126V151H513.857V112.948H529.414C532.413 112.948 534.961 113.472 537.057 114.52C539.189 115.568 540.779 117.014 541.827 118.856C542.875 120.663 543.399 122.687 543.399 124.927C543.399 127.457 542.676 129.716 541.231 131.703C539.821 133.691 537.725 135.1 534.943 135.931L543.724 151H533.262ZM523.126 130.077H528.872C530.57 130.077 531.835 129.661 532.666 128.83C533.533 127.999 533.967 126.825 533.967 125.307C533.967 123.861 533.533 122.723 532.666 121.892C531.835 121.061 530.57 120.645 528.872 120.645H523.126V130.077Z" fill="url(#paint0_linear_34_108)"/>
<path d="M175.5 86.5L193 69L211.5 87.5L194 105L175.5 86.5Z" fill="url(#paint1_linear_34_108)"/>
<path d="M171.5 91L146 116.5L157.5 128L171.5 114L193.5 136L215.5 114L252.5 151H275.5L215.5 91L193.5 113L171.5 91Z" fill="url(#paint2_linear_34_108)"/>
<path d="M168 138.5L193.5 113L230.5 150H207.5L193.5 136L179.5 150L168 138.5Z" fill="url(#paint3_linear_34_108)"/>
<path fill-rule="evenodd" clip-rule="evenodd" d="M140 15L0 148H36L107 77L140 110L187.5 62.5L140 15ZM144.263 42L119 67.2632L141.737 90L167 64.7368L144.263 42Z" fill="url(#paint4_linear_34_108)"/>
<path d="M9 148L69 88L91.5 111L114 88.5L173.5 148H147L114 115L91.5 137.5L69 115L36 148H9Z" fill="url(#paint5_linear_34_108)"/>
<path d="M53 149.5L91.5 111L130 149.5H103.5L91.5 137.5L79.5 149.5H53Z" fill="url(#paint6_linear_34_108)"/>
<defs>
<linearGradient id="paint0_linear_34_108" x1="294.635" y1="6.49999" x2="450.127" y2="178.962" gradientUnits="userSpaceOnUse">
<stop stop-color="#D22929"/>
<stop offset="0.485" stop-color="#931F1F"/>
<stop offset="1" stop-color="#531414"/>
</linearGradient>
<linearGradient id="paint1_linear_34_108" x1="193.5" y1="69" x2="193.5" y2="105" gradientUnits="userSpaceOnUse">
<stop stop-color="white"/>
<stop offset="0.23" stop-color="#AABAE4"/>
<stop offset="0.52" stop-color="#3E64C3"/>
<stop offset="0.76" stop-color="#2E4A90"/>
<stop offset="1" stop-color="#1D2F5C"/>
</linearGradient>
<linearGradient id="paint2_linear_34_108" x1="210.75" y1="91" x2="210.75" y2="151" gradientUnits="userSpaceOnUse">
<stop stop-color="white"/>
<stop offset="0.15" stop-color="#C9412F"/>
<stop offset="0.42" stop-color="#AC2828"/>
<stop offset="0.615" stop-color="#912222"/>
<stop offset="0.8" stop-color="#721B1B"/>
<stop offset="1" stop-color="#4A1212"/>
</linearGradient>
<linearGradient id="paint3_linear_34_108" x1="199.25" y1="113" x2="199.25" y2="150" gradientUnits="userSpaceOnUse">
<stop stop-color="white"/>
<stop offset="0.195" stop-color="#C9412F"/>
<stop offset="0.42" stop-color="#AC2828"/>
<stop offset="0.645" stop-color="#912222"/>
<stop offset="0.825" stop-color="#721B1B"/>
<stop offset="1" stop-color="#4A1212"/>
</linearGradient>
<linearGradient id="paint4_linear_34_108" x1="93.75" y1="15" x2="93.75" y2="148" gradientUnits="userSpaceOnUse">
<stop stop-color="white"/>
<stop offset="0.09" stop-color="#C9412F"/>
<stop offset="0.32" stop-color="#AC2828"/>
<stop offset="0.49" stop-color="#912222"/>
<stop offset="0.67" stop-color="#721B1B"/>
<stop offset="1" stop-color="#4A1212"/>
</linearGradient>
<linearGradient id="paint5_linear_34_108" x1="91.25" y1="88" x2="91.25" y2="148" gradientUnits="userSpaceOnUse">
<stop stop-color="white"/>
<stop offset="0.23" stop-color="#AABAE4"/>
<stop offset="0.52" stop-color="#3E64C3"/>
<stop offset="0.76" stop-color="#2E4A90"/>
<stop offset="1" stop-color="#1D2F5C"/>
</linearGradient>
<linearGradient id="paint6_linear_34_108" x1="91.5" y1="111" x2="91.5" y2="149.5" gradientUnits="userSpaceOnUse">
<stop stop-color="white"/>
<stop offset="0.23" stop-color="#A5B7E3"/>
<stop offset="0.495" stop-color="#3E64C3"/>
<stop offset="0.74" stop-color="#2E4A90"/>
<stop offset="1" stop-color="#1D2F5C"/>
</linearGradient>
</defs>
</svg>
