<svg width="276" height="136" viewBox="0 0 276 136" fill="none" xmlns="http://www.w3.org/2000/svg">
<path d="M175.5 71.5L193 54L211.5 72.5L194 90L175.5 71.5Z" fill="url(#paint0_linear_34_97)"/>
<path d="M171.5 76L146 101.5L157.5 113L171.5 99L193.5 121L215.5 99L252.5 136H275.5L215.5 76L193.5 98L171.5 76Z" fill="url(#paint1_linear_34_97)"/>
<path d="M168 123.5L193.5 98L230.5 135H207.5L193.5 121L179.5 135L168 123.5Z" fill="url(#paint2_linear_34_97)"/>
<path fill-rule="evenodd" clip-rule="evenodd" d="M140 0L0 133H36L107 62L140 95L187.5 47.5L140 0ZM144.263 27L119 52.2632L141.737 75L167 49.7368L144.263 27Z" fill="url(#paint3_linear_34_97)"/>
<path d="M9 133L69 73L91.5 96L114 73.5L173.5 133H147L114 100L91.5 122.5L69 100L36 133H9Z" fill="url(#paint4_linear_34_97)"/>
<path d="M53 134.5L91.5 96L130 134.5H103.5L91.5 122.5L79.5 134.5H53Z" fill="url(#paint5_linear_34_97)"/>
<defs>
<linearGradient id="paint0_linear_34_97" x1="193.5" y1="54" x2="193.5" y2="90" gradientUnits="userSpaceOnUse">
<stop stop-color="white"/>
<stop offset="0.23" stop-color="#AABAE4"/>
<stop offset="0.52" stop-color="#3E64C3"/>
<stop offset="0.76" stop-color="#2E4A90"/>
<stop offset="1" stop-color="#1D2F5C"/>
</linearGradient>
<linearGradient id="paint1_linear_34_97" x1="210.75" y1="76" x2="210.75" y2="136" gradientUnits="userSpaceOnUse">
<stop stop-color="white"/>
<stop offset="0.15" stop-color="#C9412F"/>
<stop offset="0.42" stop-color="#AC2828"/>
<stop offset="0.615" stop-color="#912222"/>
<stop offset="0.8" stop-color="#721B1B"/>
<stop offset="1" stop-color="#4A1212"/>
</linearGradient>
<linearGradient id="paint2_linear_34_97" x1="199.25" y1="98" x2="199.25" y2="135" gradientUnits="userSpaceOnUse">
<stop stop-color="white"/>
<stop offset="0.195" stop-color="#C9412F"/>
<stop offset="0.42" stop-color="#AC2828"/>
<stop offset="0.645" stop-color="#912222"/>
<stop offset="0.825" stop-color="#721B1B"/>
<stop offset="1" stop-color="#4A1212"/>
</linearGradient>
<linearGradient id="paint3_linear_34_97" x1="93.75" y1="0" x2="93.75" y2="133" gradientUnits="userSpaceOnUse">
<stop stop-color="white"/>
<stop offset="0.09" stop-color="#C9412F"/>
<stop offset="0.32" stop-color="#AC2828"/>
<stop offset="0.49" stop-color="#912222"/>
<stop offset="0.67" stop-color="#721B1B"/>
<stop offset="1" stop-color="#4A1212"/>
</linearGradient>
<linearGradient id="paint4_linear_34_97" x1="91.25" y1="73" x2="91.25" y2="133" gradientUnits="userSpaceOnUse">
<stop stop-color="white"/>
<stop offset="0.23" stop-color="#AABAE4"/>
<stop offset="0.52" stop-color="#3E64C3"/>
<stop offset="0.76" stop-color="#2E4A90"/>
<stop offset="1" stop-color="#1D2F5C"/>
</linearGradient>
<linearGradient id="paint5_linear_34_97" x1="91.5" y1="96" x2="91.5" y2="134.5" gradientUnits="userSpaceOnUse">
<stop stop-color="white"/>
<stop offset="0.23" stop-color="#A5B7E3"/>
<stop offset="0.495" stop-color="#3E64C3"/>
<stop offset="0.74" stop-color="#2E4A90"/>
<stop offset="1" stop-color="#1D2F5C"/>
</linearGradient>
</defs>
</svg>
